<?xml version="1.0" encoding="UTF-8"?><svg id="a" xmlns="http://www.w3.org/2000/svg" xmlns:xlink="http://www.w3.org/1999/xlink" viewBox="0 0 691.2 302.31"><defs><style>.c{fill:url(#b);}</style><linearGradient id="b" x1="280.74" y1="162.95" x2="383.02" y2="-14.21" gradientTransform="matrix(1, 0, 0, 1, 0, 0)" gradientUnits="userSpaceOnUse"><stop offset=".17" stop-color="#e48780"/><stop offset=".8" stop-color="#8fc9bc"/></linearGradient></defs><g><path d="M.19,291.31l18.39-102.6c.82-5.09,3.94-7.39,8.87-7.39h8.37c4.76,0,7.88,2.3,9.36,6.73l30.53,92.09,30.53-92.09c1.48-4.43,4.6-6.73,9.36-6.73h8.37c4.92,0,8.04,2.3,8.87,7.39l18.39,102.6c.98,5.75-1.81,8.87-7.39,8.87h-2.63c-4.92,0-8.04-2.46-8.87-7.39l-15.59-85.85-29.22,86.51c-1.48,4.43-4.6,6.73-9.36,6.73h-4.92c-4.76,0-7.88-2.3-9.36-6.73l-29.22-86.51-15.59,85.85c-.82,4.92-3.94,7.39-8.87,7.39h-2.63c-5.58,0-8.37-3.12-7.39-8.87Z"/><path d="M157.28,253.23c0-32.34,19.7-48.75,43.01-48.75,14.77,0,27.91,7.22,33.32,20.19v-10.18c0-5.25,2.95-8.21,8.21-8.21h1.97c5.25,0,8.21,2.95,8.21,8.21v77.32c0,5.25-2.96,8.21-8.21,8.21h-1.97c-5.25,0-8.21-2.95-8.21-8.21v-9.52c-5.25,12.64-18.55,20.03-33.16,20.03-23.31,0-43.17-16.58-43.17-49.08Zm76.82,0c0-20.52-11.98-33.16-29.38-33.16s-29.06,12.47-29.06,33.16,11.82,33.32,29.38,33.32,29.06-12.64,29.06-33.32Z"/><path d="M308.46,301.49c-24.13,0-35.13-10.01-35.13-38.74v-42.19h-5.42c-5.25,0-8.21-2.62-8.21-7.22s2.46-7.06,6.89-7.06h6.73v-9.85c0-4.92,2.46-7.88,7.22-8.86l2.3-.49c5.75-1.31,9.03,1.48,9.03,7.22v11.98h19.54c5.25,0,8.21,2.46,8.21,7.06s-2.96,7.22-8.21,7.22h-19.54v40.05c0,19.37,5.09,26.1,19.37,26.1,5.09,0,8.4,1.79,8.86,6.24,.52,5.01-1.68,7.88-6.89,8.37-1.64,.14-3.28,.16-4.76,.16h0Z"/><path d="M328.31,291.97v-108.02c0-5.25,2.96-8.21,8.21-8.21h1.97c5.25,0,8.21,2.96,8.21,8.21v39.4c3.78-9.36,13.95-18.71,30.7-18.71,24.79,0,37.92,13.46,37.92,44.65v42.68c0,5.25-2.96,8.21-8.21,8.21h-1.97c-5.25,0-8.21-2.95-8.21-8.21v-41.2c0-21.01-7.88-30.2-25.28-30.2s-24.95,11.16-24.95,32.34v39.07c0,5.25-2.95,8.21-8.21,8.21h-1.97c-5.25,0-8.21-2.95-8.21-8.21Z"/><path d="M422.01,218.15c0-18.85,11.48-28.42,25.07-28.42,8.61,0,16.27,4.21,19.43,11.77v-5.93c0-3.06,1.72-4.78,4.78-4.78h1.15c3.06,0,4.78,1.72,4.78,4.78v45.07c0,3.06-1.72,4.78-4.78,4.78h-1.15c-3.06,0-4.78-1.72-4.78-4.78v-5.55c-3.06,7.37-10.81,11.67-19.33,11.67-13.59,0-25.17-9.67-25.17-28.62Zm44.79,0c0-11.96-6.99-19.33-17.13-19.33s-16.94,7.27-16.94,19.33,6.89,19.43,17.13,19.43,16.94-7.37,16.94-19.43Z"/><path d="M510.14,246.29c-14.07,0-20.48-5.84-20.48-22.59v-24.59h-3.16c-3.06,0-4.78-1.53-4.78-4.21s1.44-4.11,4.02-4.11h3.92v-5.74c0-2.87,1.44-4.6,4.21-5.17l1.34-.29c3.35-.77,5.26,.86,5.26,4.21v6.99h11.39c3.06,0,4.78,1.44,4.78,4.11s-1.72,4.21-4.78,4.21h-11.39v23.35c0,11.29,2.97,15.21,11.29,15.21,2.97,0,4.9,1.04,5.17,3.64,.31,2.92-.98,4.59-4.02,4.88-.96,.09-1.91,.1-2.78,.1h0Z"/><path d="M521.72,240.73v-62.97c0-3.06,1.72-4.78,4.78-4.78h1.15c3.06,0,4.78,1.72,4.78,4.78v22.97c2.2-5.45,8.14-10.91,17.9-10.91,14.45,0,22.11,7.85,22.11,26.03v24.88c0,3.06-1.72,4.78-4.79,4.78h-1.15c-3.06,0-4.79-1.72-4.79-4.78v-24.02c0-12.25-4.59-17.61-14.74-17.61s-14.55,6.51-14.55,18.85v22.78c0,3.06-1.72,4.78-4.78,4.78h-1.15c-3.06,0-4.78-1.72-4.78-4.78Z"/><path d="M578.18,218.15c0-19.71,13.69-28.42,27.66-28.42s27.75,8.71,27.75,28.42-13.69,28.62-27.66,28.62-27.75-8.71-27.75-28.62Zm44.69,0c0-11.96-6.89-19.33-17.03-19.33s-16.94,7.27-16.94,19.33,6.79,19.43,17.03,19.43,16.94-7.37,16.94-19.43Z"/><path d="M669.09,189.82c15.12,0,22.11,8.71,22.11,26.03v24.88c0,3.06-1.72,4.78-4.79,4.78h-1.15c-3.06,0-4.79-1.72-4.79-4.78v-24.02c0-11.96-4.59-17.61-14.74-17.61s-14.55,6.79-14.55,18.85v22.78c0,3.06-1.72,4.78-4.78,4.78h-1.15c-3.06,0-4.78-1.72-4.78-4.78v-45.17c0-3.06,1.72-4.78,4.78-4.78h1.15c3.06,0,4.78,1.72,4.78,4.78v5.44c2.49-6.35,8.7-11.19,17.89-11.19h0Z"/></g><path class="c" d="M389.25,0c-22.5,0-48.71,11-56.96,30.74,0,0-.15,.2-.37,.61-.23-.41-.37-.61-.37-.61C323.29,11,297.08,0,274.58,0c-35.49,0-65.49,24.99-65.49,74.24s30.24,74.74,65.74,74.74c22.24,0,48.71-11.25,56.71-30.5,0,0,.15-.21,.37-.64,.23,.43,.37,.64,.37,.64,8,19.24,34.46,30.5,56.71,30.5,35.49,0,65.74-25.25,65.74-74.74S424.74,0,389.25,0Zm-107.42,124.98c-26.74,0-44.74-19-44.74-50.74s18-50.49,44.24-50.49,44.74,19.24,44.74,50.49-17.99,50.74-44.24,50.74Zm100.17,0c-26.25,0-44.24-19.25-44.24-50.74s18.24-50.49,44.74-50.49,44.24,18.99,44.24,50.49-18,50.74-44.74,50.74Z"/></svg>